<?xml version="1.0" standalone="no"?>
<!DOCTYPE svg PUBLIC "-//W3C//DTD SVG 20010904//EN"
 "http://www.w3.org/TR/2001/REC-SVG-20010904/DTD/svg10.dtd">
<svg version="1.0" xmlns="http://www.w3.org/2000/svg"
 width="800.000000pt" height="800.000000pt" viewBox="0 0 800.000000 800.000000"
 preserveAspectRatio="xMidYMid meet">
<metadata>
Created by potrace 1.14, written by Peter Selinger 2001-2017
</metadata>
<g transform="translate(0.000000,800.000000) scale(0.100000,-0.100000)"
fill="#000000" stroke="none">
<path d="M4010 6570 c-24 -18 -39 -100 -18 -100 6 0 8 -3 5 -7 -12 -12 28 -32
64 -33 61 0 94 58 66 118 -6 12 -17 22 -24 22 -8 0 -11 5 -8 10 10 17 -61 8
-85 -10z"/>
<path d="M3640 6568 c0 -5 -3 -7 -8 -4 -13 8 -37 -18 -40 -44 -8 -54 -4 -68
24 -86 53 -35 117 -10 128 50 7 39 -31 88 -71 91 -18 2 -33 -2 -33 -7z"/>
<path d="M4430 6517 c0 -4 -4 -6 -9 -2 -13 8 -53 -36 -47 -52 3 -7 1 -13 -4
-13 -23 0 15 -62 48 -79 36 -18 37 -18 69 3 33 21 36 29 35 79 0 30 -29 70
-43 61 -5 -3 -9 -1 -9 3 0 5 -9 9 -20 9 -11 0 -20 -4 -20 -9z"/>
<path d="M3231 6471 c-22 -17 -27 -38 -22 -97 1 -28 50 -48 95 -40 39 7 60 45
52 91 -10 56 -78 81 -125 46z"/>
<path d="M4759 6358 c-8 -11 -13 -24 -11 -29 1 -5 -2 -9 -7 -9 -16 0 7 -64 30
-82 35 -29 109 -9 120 32 6 24 4 60 -3 60 -5 0 -6 5 -3 10 3 6 1 10 -5 10 -6
0 -9 4 -5 9 5 10 -36 19 -81 19 -11 0 -27 -9 -35 -20z"/>
<path d="M2891 6323 c-33 -13 -48 -40 -45 -82 4 -47 11 -64 25 -56 5 4 9 1 9
-4 0 -16 56 -13 88 3 21 11 28 22 27 43 0 15 4 31 10 35 6 5 5 8 -2 8 -7 0
-13 6 -13 14 0 7 -6 18 -13 24 -16 13 -67 22 -86 15z"/>
<path d="M5098 6156 c-20 -14 -34 -96 -17 -96 5 0 8 -4 5 -9 -7 -11 18 -33 27
-24 4 3 7 2 7 -4 0 -6 10 -9 23 -8 12 1 33 3 46 4 13 0 22 4 18 7 -3 4 0 13 8
21 23 22 19 79 -7 103 -25 23 -84 27 -110 6z"/>
<path d="M2556 6085 c-7 -8 -16 -11 -20 -8 -3 4 -7 0 -7 -8 -1 -8 -3 -25 -5
-39 -3 -29 14 -80 27 -80 17 0 24 -2 41 -11 10 -6 19 -5 23 1 4 6 10 8 14 6 4
-3 17 5 28 18 23 27 23 90 0 113 -20 21 -83 25 -101 8z"/>
<path d="M5421 5902 c-48 -8 -76 -62 -55 -110 29 -69 135 -62 147 9 6 39 -11
89 -31 89 -10 0 -22 4 -27 8 -6 4 -21 6 -34 4z"/>
<path d="M2280 5798 c0 -5 -4 -7 -8 -4 -5 3 -9 0 -10 -7 -1 -7 -5 -30 -8 -51
-5 -30 -3 -41 10 -48 9 -5 13 -14 10 -20 -4 -6 -2 -8 4 -4 6 3 13 2 17 -4 7
-12 64 -10 71 2 3 5 10 5 16 2 6 -4 8 -2 5 3 -4 6 -1 16 7 22 18 15 13 81 -7
96 -9 7 -14 14 -12 17 3 3 -17 5 -45 5 -27 0 -50 -4 -50 -9z"/>
<path d="M5630 5572 c-25 -9 -39 -35 -39 -72 0 -35 20 -75 32 -63 4 3 7 1 7
-6 0 -15 69 -12 86 4 18 17 33 50 30 66 -7 36 -19 69 -25 70 -41 5 -79 6 -91
1z"/>
<path d="M2067 5460 c-21 -21 -40 -80 -26 -80 6 0 8 -4 4 -10 -8 -12 33 -53
45 -45 6 4 10 2 10 -4 0 -13 59 4 77 22 22 21 23 83 3 107 -23 27 -89 33 -113
10z"/>
<path d="M5769 5200 c-8 -8 -16 -33 -18 -55 -2 -31 3 -45 21 -61 13 -12 32
-22 43 -22 33 0 82 18 83 31 0 6 4 27 7 45 4 21 2 32 -5 32 -6 0 -9 4 -6 9 20
31 -96 51 -125 21z"/>
<path d="M4265 5151 c-77 -20 -155 -51 -155 -63 0 -5 -5 -8 -11 -8 -18 0 -69
-58 -87 -98 -14 -32 -17 -91 -18 -442 -2 -441 0 -457 57 -529 21 -25 129 -91
163 -97 6 -2 22 -6 36 -9 56 -14 133 -18 290 -16 220 2 260 4 260 14 0 4 4 5
10 2 5 -3 20 1 32 9 13 8 28 16 33 17 20 3 80 38 105 61 28 26 48 60 56 98 13
60 22 240 12 240 -3 0 -4 9 -1 20 5 19 0 19 -223 17 l-229 -2 0 -87 c0 -49 4
-88 8 -88 5 0 5 -5 1 -11 -4 -7 -7 -26 -6 -43 1 -39 -25 -64 -69 -66 -53 -3
-56 -2 -70 33 -11 25 -13 114 -12 425 0 216 3 402 7 415 5 20 12 23 69 25 46
2 66 -1 69 -10 2 -7 4 -75 4 -151 l-1 -137 227 0 226 0 -2 143 c-2 116 -6 149
-21 182 -18 39 -85 116 -85 99 0 -5 -4 -4 -8 1 -11 15 -55 36 -80 38 -12 0
-22 4 -22 7 0 3 -8 6 -17 7 -10 1 -31 5 -48 8 -16 4 -120 8 -230 10 -165 3
-212 0 -270 -14z"/>
<path d="M2807 5125 c-3 -8 -1 -1191 2 -1205 2 -9 429 -6 437 3 5 5 10 68 11
140 5 273 8 336 16 344 5 4 33 9 63 9 46 1 56 -2 66 -20 7 -13 11 -101 12
-248 1 -126 3 -229 6 -229 13 -3 426 -5 436 -2 12 4 12 361 -1 408 -14 54 -71
125 -100 125 -8 0 -15 3 -15 8 0 10 -48 30 -90 37 -19 3 -38 11 -42 18 -9 14
14 24 90 42 17 4 32 12 32 17 0 5 4 7 8 4 13 -8 67 49 88 92 14 29 19 64 20
157 1 66 -1 124 -4 130 -4 5 -8 18 -9 28 -2 10 -12 27 -23 39 -11 12 -20 25
-20 29 0 4 -22 21 -50 38 -27 17 -50 29 -50 26 0 -2 -12 0 -27 6 -38 15 -851
19 -856 4z m598 -173 c5 -15 8 -307 2 -334 -5 -27 -14 -31 -65 -33 -80 -3 -80
-3 -78 140 0 69 -2 125 -6 125 -4 0 -4 10 1 23 5 12 4 33 0 46 -15 38 3 49 76
47 43 -1 66 -5 70 -14z"/>
<path d="M1945 5100 c-4 -6 -10 -8 -15 -5 -5 3 -14 -4 -20 -15 -6 -11 -7 -20
-3 -20 4 0 2 -5 -4 -11 -7 -7 -8 -21 0 -44 11 -37 47 -58 89 -53 30 4 60 27
52 39 -3 5 -1 9 4 9 20 0 3 74 -20 92 -25 19 -73 24 -83 8z"/>
<path d="M5871 4822 c-24 -19 -45 -79 -30 -87 5 -4 9 -15 9 -26 0 -11 4 -18 9
-15 5 4 11 2 13 -4 4 -13 45 -16 80 -6 28 8 40 33 40 81 0 43 -1 47 -12 40 -5
-3 -10 1 -10 9 0 9 -8 16 -17 17 -10 0 -28 2 -40 5 -12 2 -31 -4 -42 -14z"/>
<path d="M1890 4718 c0 -6 -3 -9 -6 -5 -3 3 -16 -3 -27 -14 -31 -28 -31 -84 0
-115 13 -13 28 -22 33 -19 5 3 11 1 15 -4 9 -16 73 19 79 43 9 34 7 76 -4 76
-5 0 -9 5 -7 12 1 6 -17 17 -40 24 -30 9 -43 9 -43 2z"/>
<path d="M6535 4457 c-4 -12 -8 -29 -9 -37 -1 -8 -8 -40 -14 -70 -13 -60 -19
-90 -28 -134 -2 -16 -8 -34 -11 -39 -3 -6 -1 -7 5 -3 7 4 6 -5 -3 -26 -7 -19
-16 -49 -18 -68 -3 -19 -6 -35 -7 -35 -1 0 -3 -13 -5 -30 -2 -16 -6 -42 -9
-57 -14 -64 -18 -84 -22 -111 -2 -16 -6 -33 -10 -38 -6 -10 11 -18 47 -23 13
-2 32 -7 41 -11 22 -9 41 3 34 21 -3 8 -1 14 5 14 5 0 9 6 8 13 -2 6 1 36 5
65 9 59 25 74 68 61 16 -4 31 -8 33 -8 3 -1 6 -1 8 -2 6 -2 40 -8 74 -13 21
-3 52 -9 68 -14 17 -4 40 -7 53 -6 12 1 22 -2 22 -5 0 -4 12 -8 28 -9 15 -1
38 -5 52 -8 56 -12 119 -24 155 -29 17 -3 41 -7 55 -10 106 -24 119 -25 113
-8 -5 12 -3 14 8 8 11 -7 12 -6 2 7 -7 8 -10 17 -7 20 2 3 7 18 10 34 4 25 11
65 28 149 2 11 7 27 10 35 9 24 -7 38 -49 43 -22 2 -47 7 -55 10 -8 3 -31 8
-50 11 -37 5 -77 12 -125 23 -16 4 -39 8 -50 9 -11 1 -32 4 -47 8 -83 18 -118
25 -157 32 -18 3 -43 8 -55 10 -11 2 -37 7 -56 10 -45 8 -60 20 -54 47 3 12 7
33 9 47 3 22 12 73 18 102 2 10 -9 13 -68 21 -11 1 -25 6 -31 10 -7 4 -15 -2
-19 -16z"/>
<path d="M5896 4435 c-10 -8 -22 -12 -26 -10 -4 2 -7 -1 -8 -8 -14 -87 -13
-93 6 -110 19 -17 48 -23 100 -19 13 1 21 6 18 11 -4 5 -1 11 5 13 6 2 12 20
14 41 3 29 -1 42 -21 62 -14 14 -29 25 -34 25 -4 0 -14 2 -22 5 -7 2 -22 -2
-32 -10z"/>
<path d="M1263 4426 c-29 -7 -55 -11 -58 -8 -3 3 -5 1 -5 -4 0 -5 -12 -10 -27
-10 -16 -1 -73 -12 -128 -24 -55 -12 -111 -24 -125 -27 -14 -3 -33 -6 -42 -7
-10 0 -18 -3 -18 -6 0 -3 -8 -6 -17 -6 -22 -1 -67 -10 -149 -29 -89 -21 -116
-26 -145 -29 -27 -3 -72 -25 -53 -26 7 0 12 -10 11 -22 0 -25 7 -64 19 -101 4
-12 8 -33 10 -47 1 -14 3 -25 4 -25 3 0 11 -40 12 -62 0 -20 38 -42 38 -22 0
5 10 8 23 8 20 0 62 7 62 11 0 1 9 3 20 5 37 7 50 11 64 19 10 6 12 5 7 -2 -8
-13 6 -16 18 -4 4 4 12 8 17 8 5 1 10 2 12 3 1 2 19 5 41 7 45 6 68 -9 62 -42
-3 -13 0 -26 5 -30 12 -7 -4 -37 -22 -40 -8 -1 -30 -5 -49 -9 -19 -3 -45 -7
-57 -8 -13 0 -23 -4 -23 -7 0 -3 -10 -6 -22 -7 -13 -1 -34 -4 -48 -8 -14 -3
-38 -8 -55 -11 -16 -2 -36 -6 -42 -9 -14 -5 -18 -75 -5 -75 4 0 8 -8 9 -17 2
-46 8 -73 15 -73 4 0 5 -6 2 -13 -3 -8 1 -33 9 -55 8 -23 10 -39 5 -36 -6 4
-5 -3 2 -15 6 -12 14 -19 19 -17 4 3 30 8 57 12 27 3 52 8 56 11 5 2 18 6 30
8 64 12 119 28 124 36 3 5 10 6 16 3 7 -4 8 -2 4 4 -4 7 -1 12 9 12 9 0 13 5
10 10 -3 6 -1 10 4 10 6 0 11 7 11 15 0 8 4 15 8 15 8 0 11 23 13 97 2 56 17
51 54 -17 17 -30 40 -59 53 -65 12 -5 22 -12 22 -16 0 -3 30 -5 68 -3 76 2
168 28 176 51 3 8 10 12 15 9 13 -8 41 73 41 119 0 40 -6 110 -10 110 -1 0 -3
10 -6 23 -2 12 -6 32 -8 45 -3 12 -5 22 -7 22 -1 0 -3 9 -4 20 -1 11 -8 47
-15 80 -7 33 -14 67 -15 75 -2 8 -4 15 -5 15 -2 0 -6 17 -14 65 -3 19 -10 52
-15 72 -5 20 -6 39 -3 42 7 8 -4 6 -65 -8z m22 -333 c4 -10 9 -33 12 -51 4
-25 0 -34 -14 -39 -10 -3 -21 -11 -25 -17 -5 -7 -8 -6 -8 3 0 11 -3 11 -17 0
-9 -8 -18 -13 -20 -11 -2 2 -16 1 -31 -2 -53 -12 -78 -17 -114 -22 -36 -6 -37
-5 -48 36 -12 44 -7 76 13 78 43 5 75 10 92 15 11 4 36 9 55 12 19 3 35 7 37
8 1 2 15 4 31 5 21 1 32 -3 37 -15z"/>
<path d="M1881 4313 c-19 -10 -32 -24 -32 -37 -6 -77 15 -106 72 -106 48 0 90
35 79 65 -4 11 -3 23 2 26 14 9 -38 61 -64 64 -14 2 -39 -4 -57 -12z"/>
<path d="M5834 4045 c-36 -15 -41 -21 -48 -59 -10 -57 33 -100 91 -90 32 6 44
17 61 56 7 17 8 29 1 33 -5 4 -7 10 -4 14 2 5 -4 19 -15 31 -11 13 -20 20 -20
16 0 -4 -8 -2 -18 3 -11 6 -28 5 -48 -4z"/>
<path d="M1990 3939 c0 -5 -6 -9 -14 -9 -40 0 -57 -81 -26 -119 20 -23 41 -27
102 -20 30 4 48 77 27 115 -13 26 -89 54 -89 33z"/>
<path d="M5697 3679 c-9 -6 -17 -7 -17 -2 0 23 -34 -45 -35 -72 -4 -51 35 -86
88 -78 25 3 83 43 64 43 -4 0 -2 11 3 25 6 16 6 25 0 25 -6 0 -9 3 -9 8 6 39
-55 72 -94 51z"/>
<path d="M2119 3556 c-23 -23 -28 -34 -23 -59 3 -17 9 -36 14 -43 6 -6 8 -13
5 -16 -11 -11 78 -17 93 -5 6 5 12 6 12 3 0 -4 6 -1 14 6 29 27 11 128 -23
128 -6 0 -11 3 -11 8 0 19 -54 4 -81 -22z"/>
<path d="M6292 3553 c-9 -21 -23 -44 -29 -51 -7 -7 -16 -24 -19 -38 -3 -13
-10 -24 -16 -24 -5 0 -6 -4 -3 -10 3 -5 1 -10 -4 -10 -6 0 -11 -6 -11 -13 0
-8 -9 -24 -20 -37 -11 -12 -17 -26 -15 -30 3 -4 -2 -11 -11 -14 -9 -4 -14 -9
-11 -12 3 -3 -10 -32 -29 -64 -19 -32 -34 -63 -34 -68 0 -5 17 -23 37 -38 21
-16 50 -41 66 -56 15 -15 30 -27 33 -27 3 0 27 -18 52 -40 26 -22 58 -50 72
-61 14 -12 35 -30 48 -41 12 -10 24 -19 27 -19 3 0 13 -8 23 -17 10 -10 38
-34 61 -53 24 -19 55 -45 70 -58 14 -13 45 -37 69 -54 23 -17 42 -35 42 -40 0
-4 7 -8 16 -8 8 0 12 -4 9 -10 -3 -5 0 -10 7 -11 7 0 21 -2 31 -4 10 -2 14 1
11 7 -4 6 -3 13 2 17 5 3 19 27 32 53 13 26 27 50 33 53 5 4 7 10 5 14 -3 4 4
17 14 29 11 12 20 27 20 35 0 7 5 18 12 25 9 9 5 17 -16 37 -15 14 -31 25 -37
25 -5 0 -9 5 -9 12 0 6 -3 9 -6 5 -3 -3 -14 2 -24 11 -10 10 -26 23 -35 30
-16 14 -12 51 7 63 5 3 10 10 10 15 1 13 17 50 17 40 1 -5 8 -3 16 4 12 10 18
10 30 0 8 -6 19 -9 25 -5 5 3 10 1 10 -4 0 -6 3 -10 8 -9 4 1 23 -5 43 -14 47
-21 86 -32 77 -23 -4 4 4 26 18 48 14 23 29 54 35 70 6 15 15 27 20 27 5 0 9
9 9 20 0 11 4 20 8 20 9 0 33 44 38 66 1 7 -12 15 -30 19 -34 8 -43 11 -51 15
-3 1 -9 4 -15 5 -5 1 -12 4 -15 5 -3 1 -8 3 -12 4 -5 1 -18 7 -29 14 -12 6
-24 9 -27 6 -3 -3 -20 1 -39 9 -55 24 -72 30 -85 28 -7 -1 -13 3 -13 8 0 6 -7
8 -15 5 -8 -4 -15 -1 -15 7 0 7 -3 10 -6 6 -3 -3 -31 4 -62 15 -32 11 -63 20
-69 21 -7 0 -13 3 -13 7 0 6 -8 8 -50 12 -11 1 -20 6 -20 10 0 4 -3 7 -7 6 -5
0 -15 2 -23 5 -42 16 -199 67 -209 67 -6 0 -19 -17 -29 -37z m121 -253 c20 -8
37 -18 37 -22 0 -4 3 -7 8 -6 10 3 224 -84 238 -97 16 -14 -32 -106 -52 -98
-8 3 -14 10 -14 16 0 6 -3 7 -6 4 -6 -6 -46 22 -85 58 -9 8 -21 15 -27 15 -7
0 -12 5 -12 10 0 6 -4 10 -9 10 -15 0 -156 105 -158 117 -3 14 30 11 80 -7z"/>
<path d="M1530 3549 c0 -6 -30 -17 -47 -17 -3 0 -9 -4 -12 -9 -8 -11 -42 -32
-63 -39 -10 -4 -18 -11 -18 -16 0 -5 -4 -7 -9 -3 -5 3 -15 0 -23 -7 -7 -7 -29
-22 -48 -33 -19 -10 -57 -32 -85 -47 -27 -16 -58 -31 -67 -34 -10 -4 -18 -11
-18 -16 0 -5 -4 -7 -9 -3 -5 3 -16 -2 -24 -10 -9 -8 -20 -15 -26 -15 -6 0 -11
-5 -11 -11 0 -5 -4 -8 -9 -4 -5 3 -16 -2 -24 -10 -9 -8 -26 -19 -39 -25 -13
-5 -30 -14 -38 -20 -8 -5 -43 -25 -77 -43 l-63 -34 41 -77 c22 -42 51 -93 65
-113 13 -20 22 -38 19 -41 -2 -3 5 -13 16 -23 11 -9 21 -21 21 -26 1 -13 11
-37 17 -43 4 -3 17 -26 30 -52 26 -52 47 -60 76 -28 9 10 20 19 24 18 26 -3
31 3 21 22 -6 11 -8 20 -5 20 2 0 -3 9 -13 20 -9 12 -17 24 -16 28 0 4 -6 13
-13 20 -7 7 -13 22 -13 33 0 10 -5 19 -12 19 -6 0 -4 8 7 20 9 10 20 19 24 19
14 -2 51 14 51 22 0 4 16 13 35 20 19 7 35 16 35 20 0 4 8 9 18 13 9 3 27 10
39 15 20 9 25 4 60 -59 20 -39 42 -70 48 -70 6 0 21 7 33 16 12 8 22 13 22 10
0 -3 9 2 19 11 16 13 18 20 9 37 -6 12 -14 23 -17 26 -3 3 -16 23 -27 46 -22
42 -18 74 10 74 8 0 19 7 26 15 7 8 16 13 20 10 4 -3 11 2 14 10 3 8 9 14 13
13 12 -2 63 24 63 33 0 21 40 -8 56 -42 11 -21 22 -39 25 -39 3 0 11 -15 19
-34 l13 -35 49 25 c46 23 60 45 38 59 -6 4 -8 10 -5 15 3 4 -2 11 -11 14 -8 3
-12 10 -9 16 3 5 3 10 -2 10 -4 0 -17 20 -28 45 -11 25 -23 45 -27 45 -5 0 -8
6 -8 14 0 7 -7 19 -15 26 -8 6 -13 15 -12 18 1 4 -14 34 -34 67 -19 33 -42 74
-49 92 -9 20 -21 31 -32 30 -10 -1 -18 -4 -18 -8z"/>
<path d="M5460 3332 c-17 -14 -25 -30 -25 -56 -1 -20 3 -36 8 -36 5 0 7 -6 4
-14 -6 -15 56 -39 83 -33 31 8 50 19 44 28 -3 5 0 9 5 9 16 0 13 72 -4 94 -21
28 -85 32 -115 8z"/>
<path d="M2347 3237 c-28 -26 -30 -85 -4 -112 29 -28 85 -28 114 1 13 13 21
29 18 34 -3 6 -2 10 4 10 7 0 7 8 1 25 -5 14 -7 25 -5 25 3 0 -3 8 -12 18 -27
26 -88 26 -116 -1z"/>
<path d="M5217 3058 c-10 -5 -17 -6 -17 -3 0 4 -7 -1 -16 -10 -18 -17 -27 -95
-12 -95 5 0 6 -5 3 -10 -9 -14 54 -39 84 -33 29 5 59 33 54 50 -2 6 1 14 6 18
8 4 8 12 1 26 -6 10 -8 19 -5 19 4 0 -1 7 -9 16 -22 22 -69 34 -89 22z"/>
<path d="M2643 2978 c-33 -16 -44 -94 -18 -124 6 -7 13 -10 18 -7 4 2 7 -1 7
-7 0 -15 81 -9 87 7 3 7 8 11 12 8 4 -2 8 1 9 8 1 7 3 27 5 46 7 61 -59 98
-120 69z"/>
<path d="M5881 2900 c-13 -16 -28 -27 -33 -24 -4 3 -8 -3 -8 -12 0 -10 -2 -15
-6 -12 -3 3 -31 -18 -62 -48 -31 -30 -60 -54 -64 -54 -12 0 -9 -40 3 -40 5 0
7 -4 4 -10 -3 -5 -1 -10 5 -10 6 0 18 -7 26 -15 9 -8 13 -15 10 -15 -3 0 13
-20 37 -44 53 -55 131 -145 136 -158 3 -9 -68 -78 -81 -78 -12 0 -58 47 -58
59 0 6 -7 11 -17 11 -9 0 -14 3 -11 6 4 3 -12 23 -34 45 -22 21 -38 39 -34 39
3 0 -12 18 -34 40 -22 22 -37 40 -32 40 11 0 -21 20 -33 20 -10 0 -50 -34
-130 -108 -22 -21 -51 -45 -65 -55 -13 -9 -20 -17 -15 -17 6 0 4 -4 -4 -9 -16
-10 -9 -19 67 -95 17 -18 32 -38 32 -45 0 -7 5 -9 10 -6 6 3 10 2 10 -3 0 -6
12 -23 28 -40 15 -16 47 -53 72 -82 56 -65 92 -100 103 -100 4 0 6 -4 3 -8 -3
-5 24 -39 59 -77 36 -38 65 -71 65 -74 0 -4 11 -15 25 -25 13 -10 22 -22 19
-27 -3 -5 2 -9 10 -9 9 0 16 -5 16 -11 0 -7 8 -17 17 -24 14 -10 20 -8 40 13
13 14 23 22 23 19 0 -3 22 15 49 41 26 26 65 60 85 77 20 16 36 35 36 42 0 13
-23 42 -97 119 -24 24 -43 47 -43 50 0 4 -16 21 -34 39 -19 18 -32 35 -29 39
4 3 2 6 -4 6 -24 0 -23 33 2 58 14 13 25 21 25 16 0 -5 5 -1 11 9 13 22 28 22
48 -1 60 -69 151 -170 178 -198 17 -18 29 -35 25 -38 -3 -3 7 -6 21 -6 15 0
30 8 36 18 5 10 21 24 35 31 14 8 23 18 20 23 -3 4 -1 8 4 8 5 0 30 20 56 45
27 25 54 45 60 45 21 0 11 38 -17 67 -57 60 -106 118 -107 126 0 5 -5 5 -12 1
-7 -5 -9 -2 -5 9 4 10 -1 18 -14 22 -10 4 -19 9 -19 13 0 4 -20 28 -44 55 -25
26 -43 47 -41 47 2 0 -11 15 -28 33 -18 18 -61 66 -97 107 -36 40 -79 88 -97
107 -17 18 -29 33 -26 33 2 0 -2 7 -11 15 -21 22 -38 18 -65 -15z"/>
<path d="M1944 2873 c-21 -15 -41 -29 -44 -33 -3 -3 -45 -35 -95 -70 -49 -35
-94 -69 -100 -74 -5 -6 -32 -27 -60 -46 -27 -19 -55 -41 -62 -50 -7 -8 -13
-11 -13 -7 0 7 -10 0 -45 -30 -7 -7 -16 -13 -18 -13 -5 0 -44 -31 -78 -62 -10
-10 -19 -15 -19 -12 0 3 -13 -5 -29 -18 -16 -12 -43 -34 -60 -47 l-31 -23 42
-37 c23 -20 58 -52 79 -71 102 -96 98 -93 117 -79 9 8 30 26 47 41 16 16 35
28 40 28 6 0 17 9 25 20 8 11 18 20 23 20 5 0 29 -21 53 -46 36 -37 43 -49 33
-60 -6 -8 -8 -14 -3 -14 5 0 4 -4 -1 -8 -22 -15 -95 -127 -85 -130 6 -2 8 -8
4 -13 -3 -5 -1 -9 4 -9 5 0 42 -31 82 -70 40 -38 75 -70 79 -70 3 0 12 -10 20
-22 13 -21 14 -21 24 -2 6 10 15 23 19 29 5 5 29 42 53 80 24 39 49 75 55 82
5 7 10 17 10 23 0 5 5 10 11 10 5 0 8 4 5 9 -4 5 -3 11 1 13 12 5 68 92 65
101 -1 4 5 10 13 13 8 4 15 12 15 20 0 7 6 17 14 21 8 4 15 10 16 13 6 31 14
50 21 50 7 0 15 11 55 88 10 17 21 32 26 32 4 0 8 7 8 15 0 7 8 19 18 24 9 6
13 11 9 11 -5 0 0 12 11 28 10 15 21 32 25 38 7 12 -35 64 -52 64 -7 0 -9 5
-6 10 3 6 2 10 -4 10 -5 0 -48 37 -95 83 -95 92 -160 152 -173 160 -5 4 -27
-6 -49 -20z m103 -275 c-6 -4 -7 -8 -2 -8 6 0 3 -6 -5 -13 -9 -7 -38 -42 -65
-79 -27 -38 -53 -68 -59 -68 -5 0 -7 -3 -3 -6 6 -6 -67 -104 -87 -115 -6 -4
-28 8 -49 26 l-39 33 21 21 c12 12 18 21 14 21 -5 1 4 8 20 16 15 8 27 20 27
26 0 6 3 9 6 6 5 -6 69 48 119 100 12 12 26 22 31 22 5 0 20 14 34 30 23 26
26 27 37 13 10 -14 10 -18 0 -25z"/>
<path d="M4905 2831 c-38 -12 -58 -29 -59 -52 -1 -13 -5 -30 -9 -36 -5 -8 -4
-13 2 -13 6 0 11 -6 11 -13 0 -7 10 -18 22 -26 26 -16 78 -23 78 -10 0 5 6 9
13 9 21 0 38 38 31 73 -3 17 -7 37 -7 44 0 7 -4 10 -8 7 -4 -2 -9 0 -11 6 -4
13 -37 19 -63 11z"/>
<path d="M2992 2773 c-34 -14 -44 -29 -47 -72 -3 -37 11 -59 48 -75 24 -10 37
-10 52 -2 11 5 24 10 28 11 4 0 13 11 20 25 24 46 -5 112 -47 109 -5 0 -12 3
-15 9 -3 5 -19 3 -39 -5z"/>
<path d="M4529 2671 c-24 -7 -48 -42 -44 -62 2 -10 -1 -19 -7 -19 -7 0 -6 -6
2 -15 7 -8 10 -15 6 -15 -3 0 2 -8 12 -18 9 -10 19 -17 21 -15 2 1 9 -1 15 -5
14 -11 98 6 91 18 -3 5 -1 11 4 15 6 3 9 23 7 44 -3 41 -28 77 -46 66 -5 -3
-10 -2 -10 2 0 9 -29 12 -51 4z"/>
<path d="M3343 2620 c-24 -14 -29 -24 -28 -51 1 -19 5 -42 9 -51 9 -21 64 -50
71 -38 3 4 13 7 23 6 9 -2 25 8 34 23 20 28 24 91 7 91 -5 0 -8 4 -4 9 16 26
-73 35 -112 11z"/>
<path d="M4153 2580 c-13 -5 -23 -6 -23 -2 0 4 -9 -7 -19 -24 -22 -36 -18 -80
10 -106 19 -19 63 -30 74 -20 6 7 11 8 37 11 6 0 8 4 5 7 -3 4 0 15 7 26 23
33 -5 113 -36 105 -10 -3 -18 -1 -18 4 0 11 -8 11 -37 -1z"/>
<path d="M3770 2573 c-37 -10 -60 -28 -60 -45 0 -12 -4 -16 -12 -12 -7 4 -8 3
-4 -4 7 -12 17 -48 18 -69 1 -7 4 -11 7 -10 3 1 15 -3 26 -9 11 -5 27 -9 35
-8 8 1 20 2 26 3 30 3 52 37 50 78 -3 55 -40 88 -86 76z"/>
<path d="M2625 2342 c-11 -2 -27 -6 -35 -9 -8 -3 -20 -7 -26 -8 -16 -4 -78
-69 -82 -86 -2 -8 -15 -39 -29 -69 -14 -30 -27 -62 -29 -70 -2 -8 -8 -16 -14
-18 -5 -2 -8 -7 -5 -12 3 -5 -1 -14 -8 -22 -8 -7 -13 -21 -11 -31 1 -9 -2 -17
-7 -17 -5 0 -9 -5 -9 -11 0 -6 -16 -45 -37 -87 -20 -42 -37 -80 -38 -84 -2 -5
-3 -9 -5 -10 -11 -15 -19 -138 -9 -138 4 0 9 -10 13 -23 6 -25 29 -53 70 -82
16 -11 34 -26 42 -33 8 -7 14 -10 14 -5 0 4 4 3 8 -2 12 -17 109 -65 116 -58
3 3 6 1 6 -5 0 -7 8 -12 18 -12 10 0 22 -3 26 -7 4 -5 12 -9 17 -9 5 -1 11 -3
14 -4 3 -1 8 -3 13 -4 4 -1 16 -5 27 -9 59 -19 121 -24 170 -13 11 2 25 5 32
5 16 1 83 71 83 87 0 8 4 14 10 14 5 0 9 3 9 8 -1 4 0 10 1 15 1 4 3 10 4 15
1 4 8 18 16 32 17 30 22 52 9 44 -5 -3 -9 0 -9 6 0 6 -6 10 -12 9 -7 -1 -43
12 -80 29 -37 18 -72 32 -78 32 -5 0 -10 5 -10 10 0 6 -3 9 -7 8 -5 -1 -18 3
-29 10 -12 6 -24 8 -28 4 -4 -3 -11 0 -16 8 -6 8 -10 10 -10 4 0 -6 -8 -29
-17 -50 -9 -22 -17 -41 -18 -44 0 -3 -6 -15 -13 -28 -7 -12 -10 -28 -6 -34 4
-6 3 -8 -4 -4 -5 3 -12 1 -14 -6 -5 -14 -38 -20 -38 -7 0 5 -8 9 -18 9 -11 0
-26 8 -35 18 -15 17 -15 21 3 54 10 20 16 39 13 42 -4 3 -1 6 5 6 7 0 11 3 10
8 -1 4 7 25 17 47 10 22 19 42 20 45 6 17 27 66 45 102 11 23 20 47 20 54 0 7
7 20 16 28 8 9 13 16 10 16 -6 0 62 150 76 167 8 10 15 10 32 1 11 -7 24 -12
28 -13 16 0 52 -39 40 -43 -7 -2 -12 -8 -12 -14 0 -15 -53 -132 -63 -139 -8
-6 126 -74 168 -85 14 -3 25 -11 25 -17 0 -6 3 -7 7 -4 3 4 17 0 30 -8 13 -9
28 -13 33 -10 6 3 10 0 10 -7 1 -9 3 -9 9 2 5 8 10 18 11 22 0 4 12 32 25 62
13 30 21 57 18 60 -4 3 -2 6 3 6 18 0 8 88 -16 130 -20 38 -98 106 -115 101
-4 -2 -11 1 -14 6 -9 12 -103 59 -113 56 -4 -2 -8 2 -8 7 0 6 -9 10 -20 10
-11 0 -20 4 -20 8 0 4 -12 9 -26 10 -15 1 -32 6 -38 11 -6 5 -14 10 -18 10 -5
1 -9 1 -10 2 -2 1 -15 2 -30 3 -14 0 -30 4 -33 8 -4 4 -16 3 -26 -2 -9 -6 -19
-6 -21 -2 -2 4 -12 6 -23 4z"/>
<path d="M5056 2303 c-3 -4 -38 -13 -66 -17 -8 -2 -32 -10 -54 -19 -21 -10
-41 -17 -43 -17 -3 0 -37 -16 -77 -35 -67 -34 -169 -105 -150 -105 5 0 4 -4
-2 -8 -15 -9 -47 -72 -40 -79 2 -3 1 -16 -4 -29 -6 -15 -6 -24 0 -24 6 0 10
-8 10 -17 0 -21 23 -90 33 -99 4 -4 7 -16 7 -26 0 -10 4 -18 9 -18 5 0 11 -10
14 -22 8 -37 41 -123 50 -129 5 -3 8 -9 8 -13 -1 -3 0 -8 0 -11 1 -3 2 -8 3
-12 1 -5 9 -24 18 -43 8 -19 21 -52 28 -73 8 -20 18 -37 23 -37 4 0 6 -4 3 -8
-7 -12 46 -68 74 -77 65 -22 174 -20 220 5 8 4 20 8 25 9 21 2 81 25 102 38
12 8 25 14 28 13 12 -4 119 56 147 82 16 15 32 28 36 30 4 2 5 9 4 17 -2 7 1
10 6 7 10 -6 15 7 32 72 5 20 4 32 -2 32 -6 0 -7 7 -4 16 3 8 -1 28 -9 43 -8
16 -11 31 -8 35 4 3 0 6 -7 6 -7 0 -11 3 -7 6 8 9 -12 62 -27 67 -6 3 -29 -4
-50 -14 -21 -10 -43 -16 -47 -13 -5 3 -9 1 -9 -4 0 -6 -13 -15 -30 -21 -16 -5
-30 -7 -30 -4 0 3 -9 -2 -20 -12 -11 -10 -20 -15 -20 -11 0 3 -19 -3 -42 -15
-27 -14 -37 -24 -29 -28 7 -5 14 -14 15 -22 3 -14 6 -23 40 -103 18 -44 17
-49 -26 -70 -41 -21 -67 -20 -74 2 -4 9 -12 31 -20 49 -8 17 -14 33 -14 36 0
2 -8 22 -17 43 -9 22 -17 41 -18 44 -1 3 -6 16 -12 30 -6 14 -18 42 -26 63 -9
20 -13 37 -9 37 4 0 2 4 -3 8 -13 9 -95 217 -95 241 0 12 15 22 50 33 48 16
49 16 56 -6 4 -11 17 -44 30 -73 13 -28 24 -59 24 -67 0 -24 28 -19 133 23 52
22 98 37 101 33 3 -3 6 0 6 6 0 7 6 12 14 12 8 0 22 8 31 17 14 14 15 18 4 27
-8 6 -16 22 -17 36 -2 14 -8 27 -13 28 -5 2 -7 8 -3 13 3 5 0 9 -5 9 -6 0 -10
3 -9 8 2 4 -6 22 -17 40 -28 47 -90 74 -164 71 -34 -1 -63 -4 -65 -6z"/>
<path d="M3352 2081 c-6 -4 -14 -34 -16 -67 l-4 -59 76 -3 c42 -2 84 -8 93
-13 18 -9 18 -18 4 -158 -7 -66 -13 -123 -19 -206 -16 -196 -19 -216 -29 -232
-5 -7 -4 -13 1 -13 5 0 9 -7 9 -15 0 -8 -3 -15 -6 -15 -3 0 -6 -18 -7 -40 0
-31 4 -40 15 -39 9 1 18 0 21 -1 6 -2 101 -9 167 -13 24 -1 43 -4 43 -7 0 -14
55 -4 56 10 1 8 2 17 3 20 2 5 6 58 16 190 2 30 4 55 5 55 2 0 6 38 14 135 5
59 12 131 21 224 3 32 8 62 10 66 7 11 55 19 60 10 2 -4 21 -6 42 -5 21 0 50
-2 64 -6 23 -6 26 -4 27 20 0 14 3 40 6 58 4 17 2 34 -3 38 -6 3 -41 8 -78 11
-37 3 -88 8 -113 10 -25 3 -70 7 -100 9 -30 2 -55 4 -55 5 0 1 -63 7 -155 15
-25 2 -45 4 -45 5 0 1 -20 2 -45 3 -25 1 -50 5 -55 9 -6 4 -16 3 -23 -1z"/>
</g>
</svg>
